<?xml version="1.0" encoding="UTF-8"?>
<svg id="Layer_1" data-name="Layer 1" xmlns="http://www.w3.org/2000/svg" viewBox="0 0 266.86 113.14">
  <defs>
    <style>
      .cls-1, .cls-2, .cls-3 {
        stroke-width: 0px;
      }

      .cls-2 {
        fill: #cb2c30;
      }

      .cls-3 {
        fill: #ffc845;
      }
    </style>
  </defs>
  <g>
    <polygon class="cls-3" points="166.92 8.92 157.77 64.59 215.42 0 166.92 8.92"/>
    <path class="cls-2" d="M178.85,50.42l-11.92,13.36c4.17,3.2,7.01,8.28,7.01,13.95,0,9.7-7.87,17.57-17.57,17.57s-17.57-7.87-17.57-17.57c0-8.06,5.81-14.78,13.21-16.85l3.04-18.5c-18.78.88-34.1,16.35-34.1,35.35s15.86,35.42,35.42,35.42,35.42-15.86,35.42-35.42c0-10.94-5.15-20.81-12.94-27.3Z"/>
    <path class="cls-2" d="M55.8,25.28l-19.26,3.51v17.46h-9.48v15.99h9.48v22.62c0,20.74,8.94,26.26,24.02,26.21,1.89,0,8.36-.01,8.36-.01l-.02-19.77s-6.6.18-8.16-.52c-3.15-1.42-4.91-3.59-4.91-7.19,0-.01-.01-21.3-.01-21.3h13.09v-16.02h-13.11v-20.98Z"/>
    <polygon class="cls-2" points="0 22.03 0 111.07 19.54 111.07 19.54 18.43 0 22.03"/>
  </g>
  <path class="cls-2" d="M115.5,43.04c-7.81.08-14.56,2.27-19.99,8.84v-9.18s-14.2,2.61-14.2,2.61l-4.87.92v64.83l19.13.02v-34.29c.01-.68.01-3.01.01-3.54,0-7.95,6.44-14.18,14.39-14.39,2.35-.06,5.75.51,7.26,1.33,3.58-8.72,11.41-15.04,11.41-15.04-4.02-1.78-7.89-2.17-13.13-2.11Z"/>
  <path class="cls-2" d="M238.44,43.19c-7.81.06-14.74,2.87-19.92,9.01l-.03-9.55-19.11,3.52v64.92h19.13v-34.13c.01-.68.01-3.01.01-3.54,0-7.95,6.44-14.39,14.39-14.39s14.39,6.44,14.39,14.39c0,.19.04,1.93.04,2.66v34.98h19.53v-35.11c-.06-25.02-11.71-32.85-28.42-32.73Z"/>
</svg>